<?xml version="1.0" standalone="no"?>
<!DOCTYPE svg PUBLIC "-//W3C//DTD SVG 20010904//EN"
 "http://www.w3.org/TR/2001/REC-SVG-20010904/DTD/svg10.dtd">
<svg version="1.0" xmlns="http://www.w3.org/2000/svg"
 width="512.000000pt" height="512.000000pt" viewBox="0 0 512.000000 512.000000"
 preserveAspectRatio="xMidYMid meet">
<metadata>
Created by potrace 1.14, written by Peter Selinger 2001-2017
</metadata>
<g transform="translate(0.000000,512.000000) scale(0.100000,-0.100000)"
fill="#000000" stroke="none">
<path d="M0 2560 l0 -2560 2560 0 2560 0 0 2560 0 2560 -2560 0 -2560 0 0
-2560z m2006 1039 c183 -33 329 -174 379 -365 19 -73 19 -141 0 -223 -21 -89
-59 -155 -130 -226 -279 -280 -751 -124 -816 271 -39 240 131 486 374 539 78
17 118 18 193 4z m-841 -28 c69 -32 136 -100 167 -169 17 -36 22 -67 23 -132
0 -74 -4 -93 -29 -144 -34 -70 -89 -126 -154 -157 -38 -18 -69 -23 -164 -27
l-118 -4 0 -144 0 -144 -130 0 -130 0 0 475 0 475 238 0 237 0 60 -29z m1933
1 c70 -37 127 -96 158 -165 24 -52 29 -74 28 -142 0 -95 -21 -151 -83 -218
-23 -24 -41 -48 -41 -52 0 -4 38 -74 84 -154 45 -80 88 -156 95 -169 l12 -23
-147 3 -148 3 -80 140 -81 140 -53 3 -52 3 0 -145 0 -146 -130 0 -130 0 0 476
0 475 263 -3 c252 -3 264 -4 305 -26z m1090 -84 l-3 -113 -137 -3 -138 -3 0
-359 0 -360 -130 0 -130 0 0 360 0 360 -135 0 -135 0 0 115 0 115 405 0 406 0
-3 -112z m-2908 -1173 l0 -115 -195 0 -195 0 0 -80 0 -80 160 0 160 0 0 -105
0 -105 -160 0 -160 0 0 -180 0 -180 -130 0 -130 0 0 480 0 480 325 0 325 0 0
-115z m754 67 c142 -71 230 -188 263 -351 42 -205 -66 -415 -264 -513 -79 -39
-92 -43 -183 -46 -159 -7 -265 34 -369 142 -67 71 -105 139 -126 228 -40 168
12 337 137 454 108 99 209 136 361 130 91 -3 103 -6 181 -44z m666 -317 l0
-365 215 0 215 0 0 -115 0 -115 -345 0 -345 0 0 480 0 480 130 0 130 0 0 -365z
m805 -115 l0 -475 -130 0 -130 0 -3 465 c-1 256 0 471 3 478 3 9 36 12 132 10
l128 -3 0 -475z m788 450 c32 -12 86 -43 120 -68 199 -152 247 -437 109 -648
-65 -99 -148 -160 -265 -196 -103 -31 -239 -23 -327 18 -184 87 -290 250 -290
444 0 220 140 402 360 466 68 20 221 12 293 -16z"/>
<path d="M1904 3374 c-5 -1 -26 -5 -47 -9 -45 -7 -100 -53 -130 -109 -30 -56
-32 -203 -3 -256 45 -86 103 -123 191 -124 81 0 138 31 180 98 28 47 30 55 30
150 0 92 -2 105 -27 148 -15 25 -44 56 -65 69 -33 20 -105 39 -129 33z"/>
<path d="M890 3270 l0 -100 80 0 c104 0 120 13 120 100 0 87 -16 100 -120 100
l-80 0 0 -100z"/>
<path d="M2790 3270 l0 -100 94 0 c90 0 96 1 115 26 15 19 21 41 21 74 0 33
-6 55 -21 74 -19 25 -25 26 -115 26 l-94 0 0 -100z"/>
<path d="M1740 2184 c-50 -22 -79 -52 -106 -109 -47 -100 -24 -256 47 -322 84
-77 237 -67 302 19 81 105 75 280 -12 367 -58 58 -157 77 -231 45z"/>
<path d="M4035 2181 c-49 -22 -98 -76 -116 -128 -20 -58 -17 -169 8 -223 25
-55 75 -106 121 -121 19 -6 60 -9 92 -7 79 6 130 40 165 111 88 180 -11 387
-185 387 -25 0 -63 -9 -85 -19z"/>
</g>
</svg>
